<svg xmlns="http://www.w3.org/2000/svg" fill="none" style="filter:invert(1)" viewBox="0 0 128 128"><desc>Openai Logo Streamline Icon: https://streamlinehq.com</desc><path fill="#000" fill-rule="evenodd" d="M26.667 5.333A21.333 21.333 0 0 0 5.333 26.667v74.666a21.333 21.333 0 0 0 21.334 21.334h74.666a21.333 21.333 0 0 0 21.334-21.334V26.667a21.333 21.333 0 0 0-21.334-21.334zM39.37 37.451a18.55 18.55 0 0 1 29.76-11.334l-.043.027L47.04 38.869a2.67 2.67 0 0 0-1.333 2.32l.117 27.232-6.736-3.85V40.667c0-1.099.096-2.176.277-3.216Zm57.717.101a18.45 18.45 0 0 1 2.293 11.952l-.053-.027-22.043-12.73a2.67 2.67 0 0 0-2.677.01l-23.52 13.718-.037-7.76 20.704-11.952a18.55 18.55 0 0 1 25.333 6.789M51.115 56.635l.064 14.842 12.89 7.366 12.822-7.478-.07-14.848-12.885-7.36zm18.138-10.582 6.704-3.909 20.704 11.947a18.55 18.55 0 0 1-2.421 33.296v-25.51a2.67 2.67 0 0 0-1.344-2.314zm19.659 17.371-6.741-3.85.122 27.231a2.67 2.67 0 0 1-1.333 2.326l-22.043 12.725-.053.027a18.55 18.55 0 0 0 30.043-14.55V63.424ZM76.917 77.525l.032 7.76-20.698 11.947a18.55 18.55 0 0 1-27.627-18.741l.053.032 22.038 12.73a2.67 2.67 0 0 0 2.677-.01zm-24.874 8.331 6.704-3.91-23.643-13.509a2.67 2.67 0 0 1-1.344-2.314v-25.51a18.55 18.55 0 0 0-2.421 33.296z" clip-rule="evenodd"/></svg>