<svg xmlns="http://www.w3.org/2000/svg" fill="none" viewBox="0 0 128 128" style="filter: invert(1)"
  id="Openai-Logo--Streamline-Logos-Block">
  <desc>Openai Logo Streamline Icon: https://streamlinehq.com</desc>
  <path fill="#000000" fill-rule="evenodd"
    d="M26.666666666666664 5.333333333333333a21.333333333333332 21.333333333333332 0 0 0 -21.333333333333332 21.333333333333332v74.66666666666666a21.333333333333332 21.333333333333332 0 0 0 21.333333333333332 21.333333333333332h74.66666666666666a21.333333333333332 21.333333333333332 0 0 0 21.333333333333332 -21.333333333333332V26.666666666666664a21.333333333333332 21.333333333333332 0 0 0 -21.333333333333332 -21.333333333333332H26.666666666666664Zm12.704 32.117333333333335a18.549333333333333 18.549333333333333 0 0 1 29.759999999999998 -11.333333333333332l-0.042666666666666665 0.026666666666666665L47.04 38.86933333333333a2.6666666666666665 2.6666666666666665 0 0 0 -1.3333333333333333 2.32l0.11733333333333332 27.232 -6.735999999999999 -3.8506666666666662V40.666666666666664c0 -1.0986666666666665 0.09599999999999999 -2.1759999999999997 0.2773333333333333 -3.2159999999999997Zm57.71733333333333 0.10133333333333333a18.453333333333333 18.453333333333333 0 0 1 2.293333333333333 11.952l-0.05333333333333333 -0.026666666666666665 -22.042666666666666 -12.730666666666666a2.6666666666666665 2.6666666666666665 0 0 0 -2.6773333333333333 0.010666666666666666l-23.52 13.717333333333332 -0.03733333333333333 -7.76 20.704 -11.952a18.549333333333333 18.549333333333333 0 0 1 25.333333333333332 6.7893333333333326Zm-45.97333333333333 19.082666666666665 0.064 14.842666666666666 12.890666666666664 7.365333333333333 12.821333333333332 -7.477333333333332 -0.06933333333333333 -14.847999999999999 -12.885333333333332 -7.359999999999999 -12.821333333333332 7.477333333333332Zm18.138666666666666 -10.581333333333333 6.703999999999999 -3.909333333333333 20.704 11.946666666666667a18.549333333333333 18.549333333333333 0 0 1 -2.421333333333333 33.296l0 -0.05333333333333333v-25.455999999999996a2.6666666666666665 2.6666666666666665 0 0 0 -1.3439999999999999 -2.3146666666666667l-23.642666666666663 -13.509333333333332Zm19.658666666666665 17.370666666666665 -6.741333333333333 -3.8506666666666662 0.12266666666666666 27.232a2.6666666666666665 2.6666666666666665 0 0 1 -1.3333333333333333 2.325333333333333l-22.042666666666666 12.725333333333333 -0.05333333333333333 0.026666666666666665a18.549333333333333 18.549333333333333 0 0 0 30.042666666666666 -14.549333333333333v-23.90933333333333Zm-11.994666666666667 14.101333333333333 0.032 7.76 -20.698666666666664 11.946666666666667a18.549333333333333 18.549333333333333 0 0 1 -27.626666666666665 -18.74133333333333l0.05333333333333333 0.032 22.03733333333333 12.730666666666666a2.6666666666666665 2.6666666666666665 0 0 0 2.6773333333333333 -0.010666666666666666l23.52533333333333 -13.717333333333332Zm-24.874666666666663 8.330666666666666 6.703999999999999 -3.909333333333333 -23.642666666666663 -13.509333333333332a2.6666666666666665 2.6666666666666665 0 0 1 -1.3439999999999999 -2.3146666666666667V40.666666666666664l0 -0.05333333333333333a18.549333333333333 18.549333333333333 0 0 0 -2.421333333333333 33.296l20.704 11.946666666666667Z"
    clip-rule="evenodd" stroke-width="5.3333"></path>
</svg>