<svg xmlns="http://www.w3.org/2000/svg" viewBox="0 0 861 201"><title>gmail</title><defs><clipPath id="cp1" clipPathUnits="userSpaceOnUse"><path d="M55.11-276.44h750v750h-750z"/></clipPath><clipPath id="cp2" clipPathUnits="userSpaceOnUse"><path d="M55.11-276.44h750v750h-750z"/></clipPath><clipPath id="cp3" clipPathUnits="userSpaceOnUse"><path d="M55.11-276.44h750v750h-750z"/></clipPath><clipPath id="cp4" clipPathUnits="userSpaceOnUse"><path d="M55.11-276.44h750v750h-750z"/></clipPath><clipPath id="cp5" clipPathUnits="userSpaceOnUse"><path d="M55.11-276.44h750v750h-750z"/></clipPath><clipPath id="cp6" clipPathUnits="userSpaceOnUse"><path d="M55.11-276.44h750v750h-750z"/></clipPath><clipPath id="cp7" clipPathUnits="userSpaceOnUse"><path d="M55.11-276.44h750v750h-750z"/></clipPath><clipPath id="cp8" clipPathUnits="userSpaceOnUse"><path d="M55.11-276.44h750v750h-750z"/></clipPath><clipPath id="cp9" clipPathUnits="userSpaceOnUse"><path d="M55.11-276.44h750v750h-750z"/></clipPath><clipPath id="cp10" clipPathUnits="userSpaceOnUse"><path d="M55.11-276.44h750v750h-750z"/></clipPath><clipPath id="cp11" clipPathUnits="userSpaceOnUse"><path d="M55.11-276.44h750v750h-750z"/></clipPath></defs><style>.s5{fill:#fff}</style><g id="Clip-Path" clip-path="url(#cp1)"><path d="M70.7 184.4h36.5V96L55.1 57v111.8c0 8.6 7 15.6 15.6 15.6" style="fill:#4285f4"/></g><g clip-path="url(#cp2)"><path d="M232 184.4h36.5c8.6 0 15.6-7 15.6-15.6V56.9L232 96z" style="fill:#34a853"/></g><g clip-path="url(#cp3)"><path d="M232 28.3V96l52.1-39V36.1c0-19.2-22-30.3-37.5-18.7z" style="fill:#fbbc04"/></g><g clip-path="url(#cp4)"><path fill-rule="evenodd" d="M107.2 96V28.3l62.4 46.9L232 28.3V96l-62.4 46.8z" style="fill:#ea4335"/></g><g clip-path="url(#cp5)"><path d="M55.1 36.1v20.8L107.2 96V28.3L92.6 17.4c-15.5-11.6-37.5-.6-37.5 18.7" style="fill:#c5221f"/></g><g clip-path="url(#cp6)"><path fill-rule="evenodd" d="M805.1 162.6c-4.4 0-8.9-.1-13.3 0-1.8.1-2.2-.6-2.2-2.2.1-28.5.1-56.9.1-85.3 0-10.2 0-20.4-.1-30.6 0-1.7.4-2.4 2.2-2.3 4.4.1 8.9 0 13.3 0z" class="s5"/></g><g clip-path="url(#cp7)"><path fill-rule="evenodd" d="M478.1 98.2h27c1.3 0 2.2 0 2.4 1.6 1.7 15.9-.7 30.9-11 43.8-10.2 12.8-23.7 19.8-40.2 21.3-12.4 1.2-24.5-.1-35.6-6-19.3-10.2-31.3-25.9-33.9-47.9-2.4-19.3 2.1-36.7 15.6-51.2 14.4-15.6 32.4-21.9 53.4-19.9 13.4 1.3 25.5 5.9 35.4 15.5 2.1 2 2.1 2.1 0 4.2-2.7 2.6-5.4 5.3-8 8-.8.8-1.2.8-2.1-.1-13.3-13.2-29.5-16.1-46.8-10.9S406.5 74.2 403 91.9c-2.8 14.6-.7 28.5 8.7 40.6 11 14.1 25.8 19.4 43.4 17.7 9.3-1 17.6-4.3 24.6-10.6 7.4-6.7 11.2-15.2 12.6-25 .3-1.9-.6-2-2.1-2-13.1.1-26.2 0-39.2.1-1.7 0-2.4-.4-2.3-2.2q.15-5.1 0-10.2c-.1-1.6.4-2.2 2.1-2.1z" class="s5"/></g><g clip-path="url(#cp8)"><path fill-rule="evenodd" d="M539.5 91.5c6.6-9 15.4-14.1 26.6-13.9s19.9 5.1 25.1 15.6c2.1-3 4.3-5.7 7-8 9.5-8.4 25.6-10.3 36.7-4.2 8.3 4.5 12.1 12 13.8 20.9.5 3.2.7 6.5.7 9.8.1 16.2 0 32.5.1 48.7 0 1.7-.4 2.3-2.2 2.3q-5.4-.3-10.8 0c-2 0-2.7-.4-2.7-2.6.1-15.2.1-30.5.1-45.7 0-3.6-.2-7.1-1-10.5-1.8-7.6-6.4-11.6-14.2-12.1-12.2-.7-21.6 7.1-23.7 19.6-.3 2.3-.4 4.6-.4 6.9 0 14.1-.1 28.1 0 42.2 0 1.6-.3 2.2-2.1 2.2q-5.7-.3-11.5 0c-1.8 0-2.1-.7-2-2.2v-45.8c0-3.7-.1-7.5-1-11.2-1.9-7.3-6.5-11.2-14.1-11.7-12.6-.8-22.3 7.6-23.9 20.6q-.4 3.5-.4 7v40.3c0 3.4.5 2.9-3 2.9s-6.9 0-10.4.1c-1.5 0-2-.4-2-2q.1-39.3 0-78.6c0-1.5.4-2 1.9-1.9q5.5.1 11 0c1.5-.1 2.1.3 2 1.8q-.15 3.6 0 7.2c0 .7-.3 1.5.4 2.3" class="s5"/></g><g clip-path="url(#cp9)"><path fill-rule="evenodd" d="M720.3 151.3c-1.1.2-1.3.8-1.7 1.2-7.4 10.2-17.5 14.1-29.9 12.4-9.4-1.2-17.2-5.4-22.4-13.4-9.2-13.8-3.6-32.2 12-38.7 13.3-5.5 26.8-5.1 40.1.4 1.5.7 1.9.8 2-1.1.5-12.8-10.6-20.2-19.8-20.7-8.7-.5-15.9 2.5-21.2 9.5-.9 1.2-1.4 1.1-2.5.4-3.5-2.2-6.9-4.5-10.5-6.5-1.7-1-1.4-1.7-.4-2.9 5.2-6.6 11.9-11.1 20-13 10.3-2.4 20.5-2.2 30.3 2 11.2 4.9 17.4 13.8 18.5 25.9 1 10.9.2 21.8.3 32.7.1 7 0 14 .1 20.9 0 1.6-.3 2.3-2.1 2.2-3.7-.1-7.3-.1-11 0-1.4 0-1.9-.3-1.8-1.7.1-3.2 0-6.3 0-9.6m-19.1-29.7c-6.8 0-12.7 1.2-17.7 5.2-4.5 3.6-6.6 8.2-5 13.9s6 8.7 11.4 10.1c13.2 3.5 28.1-6.6 30.1-20.2.4-2.6-.2-3.9-2.5-5.1-5.3-2.9-11-3.7-16.3-3.9" class="s5"/></g><g clip-path="url(#cp10)"><path fill-rule="evenodd" d="M769.5 121.4c0 12.8-.1 25.7 0 38.5.1 2.4-.7 2.9-2.8 2.8-3.7-.2-7.4-.1-11.1-.1-1.4.1-1.7-.4-1.7-1.8V82c0-1.5.5-1.9 1.9-1.9q5.85.15 11.7 0c1.7 0 2 .6 2 2.1-.1 13.1 0 26.1 0 39.2" class="s5"/></g><g clip-path="url(#cp11)"><path fill-rule="evenodd" d="M761.8 40.6c6.3 0 11.3 5 11.3 11.3s-5 11.3-11.5 11.4c-6.1 0-11.3-5.1-11.3-11.3 0-6.3 5.1-11.4 11.5-11.4" class="s5"/></g></svg>