<svg version="1.2" xmlns="http://www.w3.org/2000/svg" viewBox="0 0 861 201">
	<title>gmail</title>
	<defs>
		<clipPath clipPathUnits="userSpaceOnUse" id="cp1">
			<path d="m55.11-276.44h750v750h-750z" />
		</clipPath>
		<clipPath clipPathUnits="userSpaceOnUse" id="cp2">
			<path d="m55.11-276.44h750v750h-750z" />
		</clipPath>
		<clipPath clipPathUnits="userSpaceOnUse" id="cp3">
			<path d="m55.11-276.44h750v750h-750z" />
		</clipPath>
		<clipPath clipPathUnits="userSpaceOnUse" id="cp4">
			<path d="m55.11-276.44h750v750h-750z" />
		</clipPath>
		<clipPath clipPathUnits="userSpaceOnUse" id="cp5">
			<path d="m55.11-276.44h750v750h-750z" />
		</clipPath>
		<clipPath clipPathUnits="userSpaceOnUse" id="cp6">
			<path d="m55.11-276.44h750v750h-750z" />
		</clipPath>
		<clipPath clipPathUnits="userSpaceOnUse" id="cp7">
			<path d="m55.11-276.44h750v750h-750z" />
		</clipPath>
		<clipPath clipPathUnits="userSpaceOnUse" id="cp8">
			<path d="m55.11-276.44h750v750h-750z" />
		</clipPath>
		<clipPath clipPathUnits="userSpaceOnUse" id="cp9">
			<path d="m55.11-276.44h750v750h-750z" />
		</clipPath>
		<clipPath clipPathUnits="userSpaceOnUse" id="cp10">
			<path d="m55.11-276.44h750v750h-750z" />
		</clipPath>
		<clipPath clipPathUnits="userSpaceOnUse" id="cp11">
			<path d="m55.11-276.44h750v750h-750z" />
		</clipPath>
	</defs>
	<style>
		.s0 {
			fill: #4285f4
		}

		.s1 {
			fill: #34a853
		}

		.s2 {
			fill: #fbbc04
		}

		.s3 {
			fill: #ea4335
		}

		.s4 {
			fill: #c5221f
		}

		.s5 {
			fill: #ffffff
		}
	</style>
	<g>
		<g id="Clip-Path" clip-path="url(#cp1)">
			<path class="s0" d="m70.7 184.4h36.5v-88.4l-52.1-39v111.8c0 8.6 7 15.6 15.6 15.6z" />
		</g>
		<g id="Clip-Path" clip-path="url(#cp2)">
			<path class="s1" d="m232 184.4h36.5c8.6 0 15.6-7 15.6-15.6v-111.9l-52.1 39.1z" />
		</g>
		<g id="Clip-Path" clip-path="url(#cp3)">
			<path class="s2" d="m232 28.3v67.7l52.1-39v-20.9c0-19.2-22-30.3-37.5-18.7z" />
		</g>
		<g id="Clip-Path" clip-path="url(#cp4)">
			<path fill-rule="evenodd" class="s3" d="m107.2 96v-67.7l62.4 46.9 62.4-46.9v67.7l-62.4 46.8z" />
		</g>
		<g id="Clip-Path" clip-path="url(#cp5)">
			<path class="s4" d="m55.1 36.1v20.8l52.1 39.1v-67.7l-14.6-10.9c-15.5-11.6-37.5-0.6-37.5 18.7z" />
		</g>
		<g id="Clip-Path" clip-path="url(#cp6)">
			<path fill-rule="evenodd" class="s5"
				d="m805.1 162.6c-4.4 0-8.9-0.1-13.3 0-1.8 0.1-2.2-0.6-2.2-2.2 0.1-28.5 0.1-56.9 0.1-85.3 0-10.2 0-20.4-0.1-30.6 0-1.7 0.4-2.4 2.2-2.3 4.4 0.1 8.9 0 13.3 0z" />
		</g>
		<g id="Clip-Path" clip-path="url(#cp7)">
			<path fill-rule="evenodd" class="s5"
				d="m478.1 98.2q13.5 0 27 0c1.3 0 2.2 0 2.4 1.6 1.7 15.9-0.7 30.9-11 43.8-10.2 12.8-23.7 19.8-40.2 21.3-12.4 1.2-24.5-0.1-35.6-6-19.3-10.2-31.3-25.9-33.9-47.9-2.4-19.3 2.1-36.7 15.6-51.2 14.4-15.6 32.4-21.9 53.4-19.9 13.4 1.3 25.5 5.9 35.4 15.5 2.1 2 2.1 2.1 0 4.2-2.7 2.6-5.4 5.3-8 8-0.8 0.8-1.2 0.8-2.1-0.1-13.3-13.2-29.5-16.1-46.8-10.9-17.3 5.2-27.8 17.6-31.3 35.3-2.8 14.6-0.7 28.5 8.7 40.6 11 14.1 25.8 19.4 43.4 17.7 9.3-1 17.6-4.3 24.6-10.6 7.4-6.7 11.2-15.2 12.6-25 0.3-1.9-0.6-2-2.1-2-13.1 0.1-26.2 0-39.2 0.1-1.7 0-2.4-0.4-2.3-2.2 0.1-3.4 0.1-6.8 0-10.2-0.1-1.6 0.4-2.2 2.1-2.1 9.1 0 18.2 0 27.3 0z" />
		</g>
		<g id="Clip-Path" clip-path="url(#cp8)">
			<path fill-rule="evenodd" class="s5"
				d="m539.5 91.5c6.6-9 15.4-14.1 26.6-13.9 11.2 0.2 19.9 5.1 25.1 15.6 2.1-3 4.3-5.7 7-8 9.5-8.4 25.6-10.3 36.7-4.2 8.3 4.5 12.1 12 13.8 20.9 0.5 3.2 0.7 6.5 0.7 9.8 0.1 16.2 0 32.5 0.1 48.7 0 1.7-0.4 2.3-2.2 2.3q-5.4-0.3-10.8 0c-2 0-2.7-0.4-2.7-2.6 0.1-15.2 0.1-30.5 0.1-45.7 0-3.6-0.2-7.1-1-10.5-1.8-7.6-6.4-11.6-14.2-12.1-12.2-0.7-21.6 7.1-23.7 19.6-0.3 2.3-0.4 4.6-0.4 6.9 0 14.1-0.1 28.1 0 42.2 0 1.6-0.3 2.2-2.1 2.2q-5.7-0.3-11.5 0c-1.8 0-2.1-0.7-2-2.2q0-22.9 0-45.8c0-3.7-0.1-7.5-1-11.2-1.9-7.3-6.5-11.2-14.1-11.7-12.6-0.8-22.3 7.6-23.9 20.6q-0.4 3.5-0.4 7 0 20.1 0 40.3c0 3.4 0.5 2.9-3 2.9-3.5 0-6.9 0-10.4 0.1-1.5 0-2-0.4-2-2q0.1-39.3 0-78.6c0-1.5 0.4-2 1.9-1.9q5.5 0.1 11 0c1.5-0.1 2.1 0.3 2 1.8-0.1 2.4-0.1 4.8 0 7.2 0 0.7-0.3 1.5 0.4 2.3z" />
		</g>
		<g id="Clip-Path" clip-path="url(#cp9)">
			<path fill-rule="evenodd" class="s5"
				d="m720.3 151.3c-1.1 0.2-1.3 0.8-1.7 1.2-7.4 10.2-17.5 14.1-29.9 12.4-9.4-1.2-17.2-5.4-22.4-13.4-9.2-13.8-3.6-32.2 12-38.7 13.3-5.5 26.8-5.1 40.1 0.4 1.5 0.7 1.9 0.8 2-1.1 0.5-12.8-10.6-20.2-19.8-20.7-8.7-0.5-15.9 2.5-21.2 9.5-0.9 1.2-1.4 1.1-2.5 0.4-3.5-2.2-6.9-4.5-10.5-6.5-1.7-1-1.4-1.7-0.4-2.9 5.2-6.6 11.9-11.1 20-13 10.3-2.4 20.5-2.2 30.3 2 11.2 4.9 17.4 13.8 18.5 25.9 1 10.9 0.2 21.8 0.3 32.7 0.1 7 0 14 0.1 20.9 0 1.6-0.3 2.3-2.1 2.2-3.7-0.1-7.3-0.1-11 0-1.4 0-1.9-0.3-1.8-1.7 0.1-3.2 0-6.3 0-9.6zm-19.1-29.7c-6.8 0-12.7 1.2-17.7 5.2-4.5 3.6-6.6 8.2-5 13.9 1.6 5.7 6 8.7 11.4 10.1 13.2 3.5 28.1-6.6 30.1-20.2 0.4-2.6-0.2-3.9-2.5-5.1-5.3-2.9-11-3.7-16.3-3.9z" />
		</g>
		<g id="Clip-Path" clip-path="url(#cp10)">
			<path fill-rule="evenodd" class="s5"
				d="m769.5 121.4c0 12.8-0.1 25.7 0 38.5 0.1 2.4-0.7 2.9-2.8 2.8-3.7-0.2-7.4-0.1-11.1-0.1-1.4 0.1-1.7-0.4-1.7-1.8q0-39.4 0-78.8c0-1.5 0.5-1.9 1.9-1.9 3.9 0.1 7.8 0.1 11.7 0 1.7 0 2 0.6 2 2.1-0.1 13.1 0 26.1 0 39.2z" />
		</g>
		<g id="Clip-Path" clip-path="url(#cp11)">
			<path fill-rule="evenodd" class="s5"
				d="m761.8 40.6c6.3 0 11.3 5 11.3 11.3 0 6.3-5 11.3-11.5 11.4-6.1 0-11.3-5.1-11.3-11.3 0-6.3 5.1-11.4 11.5-11.4z" />
		</g>
	</g>
</svg>