<svg xmlns="http://www.w3.org/2000/svg" width="14" height="14" fill="currentColor" class="mercado-match" data-supported-dps="14x14" viewBox="0 0 14 14"><path d="M14 1v12a1 1 0 0 1-1 1H1a1 1 0 0 1-1-1V1a1 1 0 0 1 1-1h12a1 1 0 0 1 1 1M4 5H2v7h2zm.25-2A1.27 1.27 0 0 0 3 1.8 1.27 1.27 0 0 0 1.75 3 1.27 1.27 0 0 0 3 4.2 1.27 1.27 0 0 0 4.25 3M12 8.29c0-2.2-.73-3.49-2.86-3.49A2.71 2.71 0 0 0 6.89 6V5H5v7h2V8.73A1.74 1.74 0 0 1 8.66 6.8C9.82 6.8 10 7.94 10 8.73V12h2z" class="background-mercado"/></svg>