<svg xmlns="http://www.w3.org/2000/svg" viewBox="0 0 128 38"><title>linkedin</title><style>.s0{fill:#fff}</style><path d="M.8 7.7h5v18h9.1v4.6H.9zM17 14.9h4.8v15.3H17zm2.4-7.6c1.1 0 2.1.7 2.5 1.7s.2 2.2-.6 3-1.9 1-3 .6c-1-.4-1.7-1.4-1.7-2.5q0-.6.2-1.1t.6-.9.9-.6 1.1-.2m22.2.3h4.7v13.5l5.4-6.2h5.8L51.3 22l6.1 8.2h-6l-5-7.6h-.1v7.6h-4.7zm-17.2 7.2h4.5v2.1h.1q.3-.6.8-1 .5-.5 1.1-.8t1.2-.5q.7-.2 1.4-.1c4.8 0 5.6 3.1 5.6 7.2v8.4h-4.7v-7.4c0-1.8 0-4-2.4-4-2.5 0-2.9 1.9-2.9 3.9v7.6h-4.7z" class="s0"/><path d="M71.6 27.6q-.6.7-1.3 1.3-.8.6-1.6.9-.8.4-1.7.6t-1.9.2c-4.7 0-8.5-3.1-8.5-8.1 0-4.9 3.8-8 8.5-8 4.5 0 7.2 3.1 7.2 8V24h-11q.1.7.5 1.2.3.6.8 1t1.1.6q.6.3 1.2.2.5 0 1-.1t.9-.4q.5-.2.9-.6.3-.3.6-.7zm-4-6.8q0-.6-.2-1.1-.2-.6-.6-1-.5-.4-1-.6t-1.1-.2-1.2.2-1.1.6-.7.9q-.3.6-.4 1.2zm22.8 9.4H86v-2q-.4.6-.9 1t-1.2.8q-.6.3-1.2.4-.7.2-1.4.2c-4.6 0-7.6-3.3-7.6-7.9 0-4.3 2.7-8.2 7-8.2q.7-.1 1.4 0t1.3.4q.7.2 1.2.7.6.4 1 .9h.1V7.7h4.7zm-8.2-11.6c-1.5 0-3 .9-3.6 2.3-.7 1.5-.4 3.2.7 4.3s2.8 1.5 4.3.9 2.4-2 2.4-3.6q.1-.8-.2-1.5-.2-.8-.8-1.3-.5-.6-1.3-.9-.7-.2-1.5-.2" class="s0"/><path d="M124.8 3H97.5q-.5 0-.9.2-.4.1-.7.5-.4.3-.6.7-.1.4-.1.9v27.4q0 .5.1.9.2.4.6.7.3.4.7.5.4.2.9.2h27.3q.4 0 .9-.2.4-.1.7-.5.4-.3.6-.7.1-.4.2-.9V5.3q-.1-.5-.2-.9-.2-.4-.6-.7-.3-.4-.7-.5-.5-.2-.9-.2" style="fill:#0076b2"/><path d="M99.9 15h4.7v15.3h-4.7zm2.4-7.6c1.1 0 2.1.7 2.5 1.7s.2 2.2-.6 3-2 1-3 .6c-1-.5-1.7-1.5-1.7-2.6q0-.5.2-1t.6-.9.9-.6 1.1-.2m5.3 7.6h4.6v2.1q.4-.6.8-1.1.5-.5 1.1-.8t1.3-.5q.6-.1 1.3-.1c4.8 0 5.7 3.1 5.7 7.3v8.3h-4.7v-7.4c0-1.8 0-4-2.5-4s-2.9 1.9-2.9 3.9v7.6h-4.7z" class="s0"/></svg>