<svg version="1.2" xmlns="http://www.w3.org/2000/svg" viewBox="0 0 128 38">
	<title>linkedin</title>
	<style>
		.s0 {
			fill: #ffffff
		}

		.s1 {
			fill: #0076b2
		}
	</style>
	<path class="s0"
		d="m0.8 7.7h5v18h9.1v4.6h-14zm16.2 7.2h4.8v15.3h-4.8zm2.4-7.6c1.1 0 2.1 0.7 2.5 1.7 0.4 1 0.2 2.2-0.6 3-0.8 0.8-1.9 1-3 0.6-1-0.4-1.7-1.4-1.7-2.5q0-0.6 0.2-1.1 0.2-0.5 0.6-0.9 0.4-0.4 0.9-0.6 0.5-0.2 1.1-0.2zm22.2 0.3h4.7v13.5l5.4-6.2h5.8l-6.2 7.1 6.1 8.2h-6l-5-7.6h-0.1v7.6h-4.7zm-17.2 7.2h4.5v2.1h0.1q0.3-0.6 0.8-1 0.5-0.5 1.1-0.8 0.6-0.3 1.2-0.5 0.7-0.2 1.4-0.1c4.8 0 5.6 3.1 5.6 7.2v8.4h-4.7v-7.4c0-1.8 0-4-2.4-4-2.5 0-2.9 1.9-2.9 3.9v7.6h-4.7z" />
	<path class="s0"
		d="m71.6 27.6q-0.6 0.7-1.3 1.3-0.8 0.6-1.6 0.9-0.8 0.4-1.7 0.6-0.9 0.2-1.9 0.2c-4.7 0-8.5-3.1-8.5-8.1 0-4.9 3.8-8 8.5-8 4.5 0 7.2 3.1 7.2 8v1.5h-11q0.1 0.7 0.5 1.2 0.3 0.6 0.8 1 0.5 0.4 1.1 0.6 0.6 0.3 1.2 0.2 0.5 0 1-0.1 0.5-0.1 0.9-0.4 0.5-0.2 0.9-0.6 0.3-0.3 0.6-0.7zm-4-6.8q0-0.6-0.2-1.1-0.2-0.6-0.6-1-0.5-0.4-1-0.6-0.5-0.2-1.1-0.2-0.6 0-1.2 0.2-0.6 0.2-1.1 0.6-0.5 0.4-0.7 0.9-0.3 0.6-0.4 1.2zm22.8 9.4h-4.4v-2q-0.4 0.6-0.9 1-0.5 0.4-1.2 0.8-0.6 0.3-1.2 0.4-0.7 0.2-1.4 0.2c-4.6 0-7.6-3.3-7.6-7.9 0-4.3 2.7-8.2 7-8.2q0.7-0.1 1.4 0 0.7 0.1 1.3 0.4 0.7 0.2 1.2 0.7 0.6 0.4 1 0.9h0.1v-8.8h4.7zm-8.2-11.6c-1.5 0-3 0.9-3.6 2.3-0.7 1.5-0.4 3.2 0.7 4.3 1.1 1.1 2.8 1.5 4.3 0.9 1.5-0.6 2.4-2 2.4-3.6q0.1-0.8-0.2-1.5-0.2-0.8-0.8-1.3-0.5-0.6-1.3-0.9-0.7-0.2-1.5-0.2" />
	<path class="s1"
		d="m124.8 3h-27.3q-0.5 0-0.9 0.2-0.4 0.1-0.7 0.5-0.4 0.3-0.6 0.7-0.1 0.4-0.1 0.9v27.4q0 0.5 0.1 0.9 0.2 0.4 0.6 0.7 0.3 0.4 0.7 0.5 0.4 0.2 0.9 0.2h27.3q0.4 0 0.9-0.2 0.4-0.1 0.7-0.5 0.4-0.3 0.6-0.7 0.1-0.4 0.2-0.9v-27.4q-0.1-0.5-0.2-0.9-0.2-0.4-0.6-0.7-0.3-0.4-0.7-0.5-0.5-0.2-0.9-0.2z" />
	<path class="s0"
		d="m99.9 15h4.7v15.3h-4.7zm2.4-7.6c1.1 0 2.1 0.7 2.5 1.7 0.4 1 0.2 2.2-0.6 3-0.8 0.8-2 1-3 0.6-1-0.5-1.7-1.5-1.7-2.6q0-0.5 0.2-1 0.2-0.5 0.6-0.9 0.4-0.4 0.9-0.6 0.5-0.2 1.1-0.2zm5.3 7.6h4.6v2.1q0.4-0.6 0.8-1.1 0.5-0.5 1.1-0.8 0.6-0.3 1.3-0.5 0.6-0.1 1.3-0.1c4.8 0 5.7 3.1 5.7 7.3v8.3h-4.7v-7.4c0-1.8 0-4-2.5-4-2.5 0-2.9 1.9-2.9 3.9v7.6h-4.7z" />
</svg>